<svg width="300" height="300" viewBox="0 0 300 300" fill="none" xmlns="http://www.w3.org/2000/svg">
<rect width="300" height="300" fill="white"/>
<path d="M298 150C298 231.744 231.956 298 150.5 298C69.0443 298 3 231.744 3 150C3 68.2556 69.0443 2 150.5 2C231.956 2 298 68.2556 298 150Z" stroke="black" stroke-width="4"/>
<path d="M148.491 297.986C97.8574 298.786 56.3997 264.995 42 248H259C252.972 263.996 211.782 296.986 148.491 297.986Z" fill="#D9D9D9" stroke="black"/>
<path d="M297 150C297 231.744 230.956 298 149.5 298C68.0443 298 2 231.744 2 150C2 68.2556 68.0443 2 149.5 2C230.956 2 297 68.2556 297 150Z" stroke="black" stroke-width="4"/>
<g clip-path="url(#clip0_0_1)">
<g filter="url(#filter0_d_0_1)">
<path d="M213.022 179.883C218.581 177.908 222.577 172.576 222.577 166.319C222.577 158.391 216.159 151.939 208.27 151.939H201.924V138.019H205.041C207.506 138.019 209.505 136.011 209.505 133.532V74.0165C209.504 62.428 200.695 53 189.866 53H125.421C114.592 53 105.781 62.428 105.781 74.0165V113.684H79.8876C77.4217 113.684 75.4236 115.693 75.4236 118.172V133.533C75.4236 135.753 77.0289 137.592 79.1365 137.952C79.1365 167.131 91.6553 170.469 93.4165 170.783C94.7962 175.022 98.0901 178.396 102.264 179.879L96.1158 241.061C95.8682 243.527 97.6562 245.728 100.109 245.977C100.261 245.992 100.413 246.001 100.564 246.001C102.827 246.001 104.768 244.276 104.999 241.963L106.253 229.479H209.031L210.285 241.963C210.518 244.276 212.457 246.001 214.721 246.001C214.871 246.001 215.023 245.992 215.176 245.977C217.628 245.728 219.416 243.527 219.168 241.061L213.022 179.883ZM114.709 74.0165C114.709 67.3766 119.514 61.9745 125.421 61.9745H189.866C195.772 61.9745 200.576 67.3766 200.576 74.0165V129.045H137.708V118.172C137.708 115.693 135.71 113.684 133.244 113.684H114.709V74.0165H114.709ZM192.995 138.02V151.94H122.29V138.02H192.995ZM84.3516 129.045V122.659H128.78V129.045H84.3516ZM93.5796 161.377C93.3856 161.254 87.8324 157.441 87.9413 138.02H113.362V151.94H107.013C100.852 151.939 95.5884 155.875 93.5796 161.377ZM101.636 166.319C101.636 163.339 104.049 160.914 107.013 160.914H208.27C211.236 160.914 213.648 163.339 213.648 166.319C213.648 169.301 211.236 171.726 208.27 171.726H107.013C104.049 171.726 101.636 169.302 101.636 166.319ZM107.155 220.503L111.155 180.701H204.13L208.13 220.503H107.155Z" fill="black"/>
<path d="M212.855 179.412L212.486 179.543L212.525 179.933L218.67 241.111C218.891 243.304 217.302 245.258 215.127 245.48C214.988 245.493 214.853 245.501 214.721 245.501C212.714 245.501 210.989 243.97 210.782 241.913L209.528 229.429L209.483 228.979H209.031H106.253H105.8L105.755 229.429L104.501 241.913L104.501 241.914C104.296 243.97 102.571 245.501 100.564 245.501C100.431 245.501 100.296 245.493 100.158 245.48C97.9829 245.258 96.3931 243.304 96.6133 241.111L102.762 179.929L102.801 179.539L102.432 179.408C98.4037 177.977 95.2236 174.72 93.892 170.628L93.7993 170.343L93.5043 170.291C92.7234 170.151 89.2773 169.293 86.0178 164.894C82.7523 160.487 79.6365 152.475 79.6365 137.952V137.53L79.2207 137.459C77.3502 137.14 75.9236 135.506 75.9236 133.533V118.172C75.9236 115.967 77.7003 114.184 79.8876 114.184H105.781H106.281V113.684V74.0165C106.281 62.6717 114.9 53.5 125.421 53.5H189.866C200.387 53.5 209.004 62.6717 209.005 74.0165V133.532C209.005 135.737 207.228 137.519 205.041 137.519H201.924H201.424V138.019V151.939V152.439H201.924H208.27C215.88 152.439 222.077 158.664 222.077 166.319C222.077 172.358 218.22 177.506 212.855 179.412ZM200.576 129.545H201.076V129.045V74.0165C201.076 67.1572 196.101 61.4745 189.866 61.4745H125.421C119.336 61.4745 114.453 66.8832 114.218 73.5165H114.209V74.0165V113.684V114.184H114.709H133.244C135.431 114.184 137.208 115.967 137.208 118.172V129.045V129.545H137.708H200.576ZM193.495 138.02V137.52H192.995H122.29H121.79V138.02V151.94V152.44H122.29H192.995H193.495V151.94V138.02ZM83.8516 129.045V129.545H84.3516H128.78H129.28V129.045V122.659V122.159H128.78H84.3516H83.8516V122.659V129.045ZM93.3125 161.8L93.8366 162.131L94.0493 161.548C95.989 156.236 101.071 152.439 107.013 152.44H113.362H113.862V151.94V138.02V137.52H113.362H87.9413H87.4441L87.4413 138.017C87.3319 157.519 92.9089 161.544 93.3125 161.8ZM106.657 220.453L106.602 221.003H107.155H208.13H208.683L208.628 220.453L204.627 180.651L204.582 180.201H204.13H111.155H110.703L110.658 180.651L106.657 220.453ZM107.013 160.414C103.771 160.414 101.136 163.065 101.136 166.319C101.136 169.576 103.771 172.226 107.013 172.226H208.27C211.515 172.226 214.148 169.575 214.148 166.319C214.148 163.065 211.515 160.414 208.27 160.414H107.013Z" stroke="black"/>
</g>
</g>
<g filter="url(#filter1_f_0_1)">
<path d="M221.586 151.586C220.805 152.367 220.805 153.633 221.586 154.414L234.314 167.142C235.095 167.923 236.361 167.923 237.142 167.142C237.923 166.361 237.923 165.095 237.142 164.314L225.828 153L237.142 141.686C237.923 140.905 237.923 139.639 237.142 138.858C236.361 138.077 235.095 138.077 234.314 138.858L221.586 151.586ZM292.414 154.414C293.195 153.633 293.195 152.367 292.414 151.586L279.686 138.858C278.905 138.077 277.639 138.077 276.858 138.858C276.077 139.639 276.077 140.905 276.858 141.686L288.172 153L276.858 164.314C276.077 165.095 276.077 166.361 276.858 167.142C277.639 167.923 278.905 167.923 279.686 167.142L292.414 154.414ZM223 155L291 155L291 151L223 151L223 155Z" fill="black"/>
</g>
<g filter="url(#filter2_f_0_1)">
<path d="M7.58579 151.586C6.80474 152.367 6.80474 153.633 7.58579 154.414L20.3137 167.142C21.0948 167.923 22.3611 167.923 23.1421 167.142C23.9232 166.361 23.9232 165.095 23.1421 164.314L11.8284 153L23.1421 141.686C23.9232 140.905 23.9232 139.639 23.1421 138.858C22.3611 138.077 21.0948 138.077 20.3137 138.858L7.58579 151.586ZM78.4142 154.414C79.1953 153.633 79.1953 152.367 78.4142 151.586L65.6863 138.858C64.9052 138.077 63.6389 138.077 62.8579 138.858C62.0768 139.639 62.0768 140.905 62.8579 141.686L74.1716 153L62.8579 164.314C62.0768 165.095 62.0768 166.361 62.8579 167.142C63.6389 167.923 64.9052 167.923 65.6863 167.142L78.4142 154.414ZM9 155L77 155L77 151L9 151L9 155Z" fill="black"/>
</g>
<path d="M43 249L257 249" stroke="black" stroke-width="7" stroke-linecap="round"/>
<defs>
<filter id="filter0_d_0_1" x="71.4236" y="53" width="155.153" height="201.001" filterUnits="userSpaceOnUse" color-interpolation-filters="sRGB">
<feFlood flood-opacity="0" result="BackgroundImageFix"/>
<feColorMatrix in="SourceAlpha" type="matrix" values="0 0 0 0 0 0 0 0 0 0 0 0 0 0 0 0 0 0 127 0" result="hardAlpha"/>
<feOffset dy="4"/>
<feGaussianBlur stdDeviation="2"/>
<feComposite in2="hardAlpha" operator="out"/>
<feColorMatrix type="matrix" values="0 0 0 0 0 0 0 0 0 0 0 0 0 0 0 0 0 0 0.25 0"/>
<feBlend mode="normal" in2="BackgroundImageFix" result="effect1_dropShadow_0_1"/>
<feBlend mode="normal" in="SourceGraphic" in2="effect1_dropShadow_0_1" result="shape"/>
</filter>
<filter id="filter1_f_0_1" x="217" y="134.272" width="80" height="37.4558" filterUnits="userSpaceOnUse" color-interpolation-filters="sRGB">
<feFlood flood-opacity="0" result="BackgroundImageFix"/>
<feBlend mode="normal" in="SourceGraphic" in2="BackgroundImageFix" result="shape"/>
<feGaussianBlur stdDeviation="2" result="effect1_foregroundBlur_0_1"/>
</filter>
<filter id="filter2_f_0_1" x="3" y="134.272" width="80" height="37.4558" filterUnits="userSpaceOnUse" color-interpolation-filters="sRGB">
<feFlood flood-opacity="0" result="BackgroundImageFix"/>
<feBlend mode="normal" in="SourceGraphic" in2="BackgroundImageFix" result="shape"/>
<feGaussianBlur stdDeviation="2" result="effect1_foregroundBlur_0_1"/>
</filter>
<clipPath id="clip0_0_1">
<rect width="192" height="193" fill="white" transform="translate(53 53)"/>
</clipPath>
</defs>
</svg>
